<svg xmlns="http://www.w3.org/2000/svg" viewBox="0 0 758 888">
<defs>
 <linearGradient id="p" x1="0" y1="0" x2="1" y2="1"><stop offset="0" stop-color="#ff6b8a"/><stop offset="1" stop-color="#b9002f"/></linearGradient>
 <linearGradient id="w" x1="0" y1="0" x2="1" y2="1"><stop offset="0" stop-color="#ffffff"/><stop offset="1" stop-color="#cfd1d4"/></linearGradient>
</defs>
<rect width="758" height="888" fill="none"/>
<g transform="translate(145 0)">
 <path d="M175 200 L200 140 L230 198 L205 250 Z" fill="#fff"/>
 <path d="M220 185 L250 125 L280 183 L255 235 Z" fill="#fff"/>
 <path d="M265 170 L295 110 L325 168 L300 220 Z" fill="#fff"/>
 <path d="M70 235 L240 175 L430 225 L365 500 L105 405 Z" fill="url(#p)"/>
 <path d="M240 175 L430 225 L365 500 L245 390 Z" fill="#c60b36"/>
 <path d="M70 235 L105 405 L150 420 L125 270 Z" fill="#f45b78"/>
 <path d="M105 405 L365 500 L350 445 L145 365 Z" fill="#e84968"/>
 <path d="M115 250 L190 270 L165 360 L95 340 Z" fill="#c60b36"/>
 <path d="M185 205 L240 175 L395 220 L355 255 L205 225 Z" fill="url(#w)"/>
 <path d="M205 225 L355 255 L345 370 L195 330 Z" fill="#59341e"/>
 <path d="M350 445 L365 500 L430 225 L395 220 Z" fill="#a9002d"/>
 <path d="M365 500 L565 455 L430 345 L430 225 Z" fill="#eee"/>
</g>
<text x="10" y="690" font-family="Arial Black,Arial,sans-serif" font-size="132" font-weight="900" fill="#df4261">Gurobean</text>
<text x="12" y="760" font-family="Arial Narrow,Arial,sans-serif" font-size="43" font-weight="800" letter-spacing="5" fill="#5b3518">THE COFFEE OPTIMIZATION GAME</text>
</svg>